# xmcd
#
# Track frame offsets: 
#        150
#        18806
#        44966
#        66218
#        82527
#        107134
#        128585
#        145889
#        164084
#        186322
#        188549
#        219120
#        237600
#        257253
#
# Disc length: 4430 seconds
#
# Revision: 1
# Processed by: cddbd v1.5.2PL0 Copyright (c) Steve Scherf et al.
# Submitted via: ExactAudioCopy v1.0b3
#
DISCID=bc114c0e
DTITLE=girl next door - NEXT FUTURE
DYEAR=2010
DGENRE=JPop
TTITLE0=Jump
TTITLE1=Infinity
TTITLE2=Winter Crystal
TTITLE3=空へ
TTITLE4=Tri△ngle
TTITLE5=Seeds of dream
TTITLE6=Artemis
TTITLE7=Orion
TTITLE8=無防備な純愛
TTITLE9=涼風薫花
TTITLE10=sa・ku・ra
TTITLE11=Be your wings
TTITLE12=恋の魔法
TTITLE13=FRIENDSHIP
EXTD=
EXTT0=
EXTT1=
EXTT2=
EXTT3=
EXTT4=
EXTT5=
EXTT6=
EXTT7=
EXTT8=
EXTT9=
EXTT10=
EXTT11=
EXTT12=
EXTT13=
PLAYORDER=
